<svg xmlns="http://www.w3.org/2000/svg" width="1440" height="960" viewBox="0 0 1440 960">
  <defs>
    <filter id="shadow" x="-20%" y="-20%" width="140%" height="140%">
      <feDropShadow dx="0" dy="8" stdDeviation="10" flood-color="#1F2933" flood-opacity="0.12"/>
    </filter>
    <marker id="arrow-red" markerWidth="10" markerHeight="10" refX="8" refY="5" orient="auto">
      <path d="M0,0 L10,5 L0,10 Z" fill="#D71920"/>
    </marker>
    <marker id="arrow-gray" markerWidth="10" markerHeight="10" refX="8" refY="5" orient="auto">
      <path d="M0,0 L10,5 L0,10 Z" fill="#6F7378"/>
    </marker>
    <style>
      .title { font: 700 34px "Microsoft YaHei", "PingFang SC", Arial, sans-serif; fill: #0B2545; }
      .subtitle { font: 400 17px "Microsoft YaHei", "PingFang SC", Arial, sans-serif; fill: #6F7378; }
      .h { font: 700 20px "Microsoft YaHei", "PingFang SC", Arial, sans-serif; fill: #0B2545; }
      .t { font: 400 15px "Microsoft YaHei", "PingFang SC", Arial, sans-serif; fill: #1F2933; }
      .s { font: 400 13px "Microsoft YaHei", "PingFang SC", Arial, sans-serif; fill: #6F7378; }
      .tiny { font: 400 12px "Microsoft YaHei", "PingFang SC", Arial, sans-serif; fill: #6F7378; }
      .card { fill: white; stroke: #D8DEE6; stroke-width: 1.2; filter: url(#shadow); }
      .band { fill: #F5F7FA; stroke: #D8DEE6; stroke-width: 1; }
      .redline { stroke: #D71920; stroke-width: 3; fill: none; marker-end: url(#arrow-red); }
      .grayline { stroke: #6F7378; stroke-width: 2.2; fill: none; marker-end: url(#arrow-gray); }
      .dash { stroke: #6F7378; stroke-width: 2; stroke-dasharray: 8 8; fill: none; marker-end: url(#arrow-gray); }
    </style>
  </defs>
  <rect width="100%" height="100%" fill="#FFFFFF"/>
  <path d="M0 0 H1440 V10 H0 Z" fill="#D71920"/>
  <path d="M0 10 H1440 V15 H0 Z" fill="#6F7378" opacity="0.55"/>
  <text x="64" y="72" class="title">系统功能地图</text>
  <text x="64" y="102" class="subtitle">按集团、分公司、票务室三级用户视角展示业务入口和能力分布</text>

  <rect x="72" y="148" width="1292" height="704" rx="18" class="band"/>
  <text x="104" y="190" class="h">集团视角</text>
  <rect x="104" y="220" width="210" height="116" rx="10" class="card"/>
<rect x="104" y="220" width="210" height="8" rx="4" fill="#D71920"/>
<text x="126" y="262" class="h">集团管理</text>
<text x="126" y="292" class="t">用户、权限、菜单</text>
<text x="126" y="318" class="t">阈值、日志、配置</text>
  <rect x="344" y="220" width="210" height="116" rx="10" class="card"/>
<rect x="344" y="220" width="210" height="8" rx="4" fill="#6F7378"/>
<text x="366" y="262" class="h">集团审批</text>
<text x="366" y="292" class="t">印制、调拨、核销</text>
<text x="366" y="318" class="t">调账审核</text>
  <rect x="584" y="220" width="210" height="116" rx="10" class="card"/>
<rect x="584" y="220" width="210" height="8" rx="4" fill="#2E86C1"/>
<text x="606" y="262" class="h">集团报表</text>
<text x="606" y="292" class="t">存售、收入、清分</text>
<text x="606" y="318" class="t">趋势、月报</text>
  <rect x="824" y="220" width="210" height="116" rx="10" class="card"/>
<rect x="824" y="220" width="210" height="8" rx="4" fill="#3FA45B"/>
<text x="846" y="262" class="h">数据服务</text>
<text x="846" y="292" class="t">数据湖、二维码</text>
<text x="846" y="318" class="t">接口审计</text>

  <text x="104" y="414" class="h">分公司视角</text>
  <rect x="104" y="444" width="210" height="116" rx="10" class="card"/>
<rect x="104" y="444" width="210" height="8" rx="4" fill="#2E86C1"/>
<text x="126" y="486" class="h">基础资料</text>
<text x="126" y="516" class="t">票务室、线路</text>
<text x="126" y="542" class="t">车辆、司售、票价</text>
  <rect x="344" y="444" width="210" height="116" rx="10" class="card"/>
<rect x="344" y="444" width="210" height="8" rx="4" fill="#D71920"/>
<text x="366" y="486" class="h">票库票柜</text>
<text x="366" y="516" class="t">印制、调拨、核销</text>
<text x="366" y="542" class="t">配票申请、调票</text>
  <rect x="584" y="444" width="210" height="116" rx="10" class="card"/>
<rect x="584" y="444" width="210" height="8" rx="4" fill="#F2C94C"/>
<text x="606" y="486" class="h">充值与特殊</text>
<text x="606" y="516" class="t">IC卡库存、售出</text>
<text x="606" y="542" class="t">异物、大额币、残币</text>
  <rect x="824" y="444" width="210" height="116" rx="10" class="card"/>
<rect x="824" y="444" width="210" height="8" rx="4" fill="#3FA45B"/>
<text x="846" y="486" class="h">分公司报表</text>
<text x="846" y="516" class="t">日报、月报</text>
<text x="846" y="542" class="t">收入核对、导出</text>

  <text x="104" y="638" class="h">票务室视角</text>
  <rect x="104" y="668" width="210" height="116" rx="10" class="card"/>
<rect x="104" y="668" width="210" height="8" rx="4" fill="#3FA45B"/>
<text x="126" y="710" class="h">票柜库存</text>
<text x="126" y="740" class="t">入库、出库</text>
<text x="126" y="766" class="t">库存查询</text>
  <rect x="344" y="668" width="210" height="116" rx="10" class="card"/>
<rect x="344" y="668" width="210" height="8" rx="4" fill="#D71920"/>
<text x="366" y="710" class="h">票袋票单</text>
<text x="366" y="740" class="t">票袋、配票</text>
<text x="366" y="766" class="t">结算、重新结算</text>
  <rect x="584" y="668" width="210" height="116" rx="10" class="card"/>
<rect x="584" y="668" width="210" height="8" rx="4" fill="#6F7378"/>
<text x="606" y="710" class="h">退票打印</text>
<text x="606" y="740" class="t">票袋/票柜退票</text>
<text x="606" y="766" class="t">配票单、结算单</text>
  <rect x="824" y="668" width="210" height="116" rx="10" class="card"/>
<rect x="824" y="668" width="210" height="8" rx="4" fill="#2E86C1"/>
<text x="846" y="710" class="h">票务室报表</text>
<text x="846" y="740" class="t">日结、存售</text>
<text x="846" y="766" class="t">交班、银行登记</text>

  <rect x="1090" y="220" width="190" height="564" rx="12" fill="#FFFFFF" stroke="#D8DEE6" filter="url(#shadow)"/>
  <rect x="1090" y="220" width="190" height="8" rx="4" fill="#D71920"/>
  <text x="1116" y="262" class="h">共用能力</text>
  <text x="1116" y="306" class="t">消息中心</text>
  <text x="1116" y="338" class="t">阈值预警</text>
  <text x="1116" y="370" class="t">Excel 导入导出</text>
  <text x="1116" y="402" class="t">打印模板</text>
  <text x="1116" y="434" class="t">操作审计</text>
  <text x="1116" y="466" class="t">数据权限</text>
  <text x="1116" y="498" class="t">外部接口</text>
  <text x="1116" y="530" class="t">备份恢复</text>
  <path d="M1038 278 H1084" class="grayline"/>
  <path d="M1038 502 H1084" class="grayline"/>
  <path d="M1038 726 H1084" class="grayline"/>

  <text x="64" y="925" class="tiny">北京公交集团票务综合管理平台系统升级 | SDD（Spec-Driven Development，规范驱动开发）实施方案配套设计图</text>
  <circle cx="1358" cy="904" r="18" fill="#D71920" opacity="0.95"/>
  <circle cx="1395" cy="904" r="18" fill="#6F7378" opacity="0.78"/>
</svg>
